<svg xmlns="http://www.w3.org/2000/svg" viewBox="0 0 240 80" width="100%" height="100%" fill="none">
  <defs>
    <style type="text/css">
      @import url('https://fonts.googleapis.com/css2?family=Caveat:wght@700&amp;display=swap');
      .wordmark-text {
        font-family: 'Caveat', cursive;
        font-weight: 700;
        font-size: 56px;
        letter-spacing: 0.03em;
      }
    </style>
  </defs>

  <!-- Shadow Layer for Text "Travi!" -->
  <text x="94" y="61" class="wordmark-text" fill="#1a1a1a">Travi!</text>

  <!-- Main Text Layer for "Travi!" -->
  <text x="90" y="57" class="wordmark-text" fill="#FF5A5F" stroke="#1a1a1a" stroke-width="4.5" stroke-linejoin="round" stroke-linecap="round" paint-order="stroke fill">Travi!</text>

  <!-- Aeroplane Shadow Layer (offset 4px down and right) -->
  <g transform="translate(19, 21) rotate(45) scale(1.6)">
    <path d="M17.8 19.2 16 11l3.5-3.5C21 6 21.5 4 21 3c-1-.5-3 0-4.5 1.5L13 8 4.8 6.2c-.5-.1-.9.1-1.1.5l-.3.5c-.2.5-.1 1 .3 1.3L9 12l-2 2-2.3-.6c-.5-.1-1.1.1-1.3.6l-.2.4c-.2.5-.1 1 .3 1.3L7 17l.8 3.5c.1.5.6.8 1.1.8l.4-.2c.5-.2.7-.8.6-1.3L9.3 17.5l2-2 3.5 5.5c.3.4.8.5 1.3.3l.5-.3c.4-.2.6-.6.5-1.1Z" 
          fill="#1a1a1a" stroke="#1a1a1a" stroke-width="2.5" stroke-linejoin="round" stroke-linecap="round"/>
  </g>

  <!-- Aeroplane Main Layer -->
  <g transform="translate(15, 17) rotate(45) scale(1.6)">
    <path d="M17.8 19.2 16 11l3.5-3.5C21 6 21.5 4 21 3c-1-.5-3 0-4.5 1.5L13 8 4.8 6.2c-.5-.1-.9.1-1.1.5l-.3.5c-.2.5-.1 1 .3 1.3L9 12l-2 2-2.3-.6c-.5-.1-1.1.1-1.3.6l-.2.4c-.2.5-.1 1 .3 1.3L7 17l.8 3.5c.1.5.6.8 1.1.8l.4-.2c.5-.2.7-.8.6-1.3L9.3 17.5l2-2 3.5 5.5c.3.4.8.5 1.3.3l.5-.3c.4-.2.6-.6.5-1.1Z" 
          fill="#4A90E2" stroke="#1a1a1a" stroke-width="2.5" stroke-linejoin="round" stroke-linecap="round"/>
  </g>
</svg>
